# xmcd
#
# Track frame offsets: 
#        150
#        20333
#        34748
#        51779
#        68973
#        82875
#        102483
#        121468
#        137865
#        154133
#        167928
#        182332
#        206646
#        222618
#        239330
#        257538
#
# Disc length: 3691 seconds
#
# Revision: 0
# Processed by: cddbd v1.5PL3 Copyright (c) Steve Scherf et al.
# Submitted via: ExactAudioCopy v0.95a5
#
DISCID=e40e6910
DTITLE=Various Artist - Idolos 32 CD 2
DYEAR=2001
DGENRE=Ballad
TTITLE0=Ricardo Montaner/La Cima Del Cielo
TTITLE1=Ilan Chester/Solo Faltas Tu
TTITLE2=Guillermo Davila/Yo Necesito Mas De Ti
TTITLE3=Franco de Vita/Te Amo
TTITLE4=Ilan Chester/Eres Una En Un Millon
TTITLE5=Ricardo Montaner/Tan Enamorado
TTITLE6=Guillemo Davila/Toda La Luz
TTITLE7=Franco de Vita/Solo Importas Tu
TTITLE8=Guillermo Davila/Barco A La Deriva
TTITLE9=Ilan Chester/Es Verdad
TTITLE10=Franco de Vita/Lo Que Espero De Ti
TTITLE11=Ricardo Montaner/Yo Que Te Ame
TTITLE12=Ilan Chester/Marea De La Mar
TTITLE13=Guillermo Davila/Cada Cosa En Su Lugar
TTITLE14=Franco de Vita/Un Buen Perdedor
TTITLE15=Ricardo Montaner/Me Va A Extrañar (Unchained My Heart)
EXTD=
EXTT0=
EXTT1=
EXTT2=
EXTT3=
EXTT4=
EXTT5=
EXTT6=
EXTT7=
EXTT8=
EXTT9=
EXTT10=
EXTT11=
EXTT12=
EXTT13=
EXTT14=
EXTT15=
PLAYORDER=
